#!OML:ASF F:\VICON\USERDATA\INSTALL\rory3\rory3.ASF
:FULLY-SPECIFIED
:DEGREES
73
root 0.18337203017442202 18.291286388740566 41.01553440543606 5.0121728353874975 -3.889847853983571 -1.3220796099563303
lfemur 5.4281927340415255 -1.210330416102382 -23.530168820949
ltibia 36.86765035674544
lfoot 7.2641204911049835 -9.319850476170176
ltoes -25.278446064111897
rfemur -29.988122594227498 3.9704562622134496 26.646480865584703
rtibia 47.31136258260596
rfoot 7.908677893636204 -0.08958665306007507
rtoes 2.437848955395523
lowerback 13.877551310972068 0.8309102946721926 -0.26011536103082933
upperback -2.153905932057284 1.1823868050007191 2.108406399267499
thorax -9.947871852589628 0.6553014464338003 2.868057622445446
lowerneck -19.508877980098383 -1.92534272415049 -3.2158656155902503
upperneck 17.106479539324457 -1.9379463517016289 1.955434715310219
head 8.403842991880806 -0.9293442634224072 0.8463802026022178
lclavicle -1.732080964365883e-15 1.7812468845555377e-15
lhumerus -36.586254328819436 -15.651564389416864 95.69869989507671
lradius 119.71491912305684
lwrist 35.356946944116636
lhand -22.83152374156131 0.4165888356065883
lfingers 7.12502
lthumb 3.1031155232931855 29.737726215492454
rclavicle -1.7274161477403514e-15 1.783227097866185e-15
rhumerus -56.85189166692523 8.965883798499117 -96.33410678382317
rradius 114.29455299851992
rwrist -11.904351887418334
rhand -15.292522467932582 39.13381244002366
rfingers 7.12502
rthumb 11.445948788252885 9.848718596000609
74
root 0.18986824830819024 18.411231190226967 42.1126031690669 5.430130614034092 -4.80775146825603 -1.8076429582319369
lfemur 6.224877809983552 -1.2784345869351714 -23.172398748770558
ltibia 36.20992885647934
lfoot 10.92228072162833 -9.399547740275787
ltoes -22.44615621560903
rfemur -29.77023079795194 4.804146675474444 27.152283970883843
rtibia 43.47576023467925
rfoot 9.296843104952691 0.38715657371308865
rtoes -0.832379439953375
lowerback 13.386308840475092 0.778577815870658 0.2422437001771105
upperback -2.476481017587227 1.2119514540860796 2.3544987751928597
thorax -9.899099379452293 0.6061272496998878 2.695299639141979
lowerneck -19.44624780620923 -1.9498668039622225 -3.2305821063731033
upperneck 17.156818037188973 -1.9766381428001725 1.9050543663341077
head 8.441314243479564 -0.9549674520670999 0.8151971233704057
lclavicle -1.729454910067014e-15 1.783153564359064e-15
lhumerus -36.736984446795475 -16.274247105156686 95.28532337244724
lradius 120.51136236944049
lwrist 34.450678061263396
lhand -22.93434586525362 0.4984052625682165
lfingers 7.12502
lthumb 3.0674168460798557 30.077361709749773
rclavicle -1.7263616137885929e-15 1.7840583851154746e-15
rhumerus -58.32076558876385 8.569280197105469 -96.64681511489707
rradius 114.03177462068629
rwrist -11.7669455416237
rhand -15.345416015402652 39.229551823616184
rfingers 7.12502
rthumb 11.431602481505015 9.836757897019732
75
root 0.20762029077349484 18.4935152626091 43.139839365119194 5.513183120511972 -5.257395825647472 -1.199504524715566
lfemur 6.735176864202783 -1.7109357929279752 -24.07748884660859
ltibia 36.356007612995015
lfoot 13.759843526980866 -9.297696471275906
ltoes -18.518888509661135
rfemur -28.952485701014425 4.689116026988236 26.594044216568197
rtibia 40.611959194956114
rfoot 10.512033802729501 0.9130539823149473
rtoes -5.951917790707853
lowerback 13.059249484507049 0.684590410662892 -0.09610724145144833
upperback -2.5590496866518784 1.0189781693786433 2.2145297749210755
thorax -9.743826453811849 0.5137101942410336 2.7082565617939425
lowerneck -19.712196269084 -1.9434577413575824 -3.005863690021686
upperneck 17.139782566214066 -1.979056300182601 1.6814807954777
head 8.442685257430288 -0.9766369459090423 0.6950458670871366
lclavicle -1.730637853659834e-15 1.782321752176497e-15
lhumerus -36.76951921771571 -16.920384288796043 94.84779288156138
lradius 120.80171672727981
lwrist 33.929223036142666
lhand -23.16674289230887 0.2625947930896164
lfingers 7.12502
lthumb 2.991796014588928 29.958402098577167
rclavicle -1.7281228165526124e-15 1.7824908636209963e-15
rhumerus -59.505758587267415 7.912334889543658 -96.89374329197494
rradius 114.09867470360514
rwrist -11.7517729311113
rhand -15.366670182837764 39.22343231972432
rfingers 7.12502
rthumb 11.24599432603645 10.046035923910166
76
root 0.20113134944147912 18.526590684263834 44.07369298668959 5.624640048905102 -5.560077580399936 -0.9248464764012216
lfemur 6.544671136548148 -2.0557830004458206 -24.47177582616625
ltibia 38.13171951494346
lfoot 14.551039158536216 -8.61865025931384
ltoes -17.376653672698332
rfemur -28.25982208103459 4.6704873294947635 26.462436111331172
rtibia 38.69227232014612
rfoot 11.546196657666254 1.0539467421384856
rtoes -8.545825971605728
lowerback 13.030532893968607 0.6431867473479639 -0.08304311575688761
upperback -2.803368232879814 0.9277283182218441 2.0940048753166605
thorax -9.88715515271093 0.4146910196555862 2.4075006370158896
lowerneck -19.692042927934775 -2.038981738193718 -2.9023317398221113
upperneck 16.903984696224796 -2.12813112648327 1.674497908681099
head 8.350978662375915 -1.0478130570232835 0.6842453642614292
lclavicle -1.7289113303901563e-15 1.783558509300959e-15
lhumerus -36.87989990376912 -17.725619122179907 94.57283077746925
lradius 120.64348959800913
lwrist 33.65123130670559
lhand -23.37259439900277 -0.23016558415168187
lfingers 7.12502
lthumb 2.777896372840557 29.77073173750575
rclavicle -1.7274373190560435e-15 1.7826219594015885e-15
rhumerus -60.40967344577251 7.0256097830510145 -97.07561663434933
rradius 114.28781308428974
rwrist -11.781015156913318
rhand -15.323129746841342 39.123377152843986
rfingers 7.12502
rthumb 11.287174438307154 10.26613004061803
77
root 0.1839773753244127 18.515172766474894 45.23827036144995 5.449954328044952 -5.7841762563377745 -0.36560050797506927
lfemur 6.371234889642055 -2.3509471164019837 -25.145482011649133
ltibia 41.5854585406085
lfoot 14.419616908668292 -7.482281573123568
ltoes -15.457771830215686
rfemur -27.666262314326275 4.54160060001745 26.023728470934586
rtibia 37.569314847182305
rfoot 12.784051609202827 0.8548279187203836
rtoes -8.467209492854106
lowerback 13.014465664140651 0.6544518120629704 -0.35564810353583187
upperback -2.596520520172267 0.850765531958812 1.8027774312280047
thorax -9.629151966032882 0.41691926846907745 2.2608036949552637
lowerneck -20.053412605999696 -2.0468859379621023 -2.947302028292664
upperneck 16.689107216078575 -2.1517066106665212 1.7384700063496243
head 8.314024772724498 -1.0546483126803041 0.724121494797255
lclavicle -1.7272794312055318e-15 1.784765690173741e-15
lhumerus -36.813003282891444 -18.453166840036385 94.29431831154395
lradius 119.88394817350985
lwrist 33.080801008944704
lhand -23.960020127747406 0.8118522562339592
lfingers 7.12502
lthumb 2.4289908821207984 30.496535756583484
rclavicle -1.7265026922092455e-15 1.7833606465116367e-15
rhumerus -60.70040906617624 5.9433156009378685 -97.13080750962162
rradius 114.59120534819888
rwrist -11.360443129304345
rhand -15.417344452117897 39.017248128077156
rfingers 7.12502
rthumb 11.127317755273486 10.202129872318407
78
root 0.193074276009804 18.45835339859579 46.14507187383588 4.562652249082598 -4.9445219762649435 -0.08446729015747634
lfemur 6.255670572300881 -3.5128219016526154 -25.258366526576978
ltibia 46.096286824700485
lfoot 13.767540933373677 -7.071068869828366
ltoes -13.92864533867429
rfemur -26.608751589273027 3.302428005051823 25.745631833306753
rtibia 37.421993476143314
rfoot 13.486648785957273 -0.07228878287725671
rtoes -8.891810030241349
lowerback 13.384310022141504 0.33845356386793246 -0.01937613795930382
upperback -2.1771169118842293 0.427358572101995 1.4817532645762195
thorax -9.472392613723219 0.23565575717614762 1.7619170834462166
lowerneck -20.083974328526192 -2.038102755721437 -3.0700795951860873
upperneck 16.37879853324251 -2.1237148922505624 1.7921760171802106
head 8.219059287850161 -1.0509198656466858 0.7787732963971415
lclavicle -1.7275716742040457e-15 1.7845456269729504e-15
lhumerus -36.84107726632339 -18.779480852849215 94.04024704337391
lradius 118.47423481667035
lwrist 32.477742788929035
lhand -23.770861190676154 0.8837934363268152
lfingers 7.12502
lthumb 2.6310774771037986 30.746447752884244
rclavicle -1.7263764889987055e-15 1.7835180524388867e-15
rhumerus -60.709255113232004 4.971404114027445 -97.23511686553721
rradius 114.96161131310163
rwrist -11.059603466213268
rhand -15.571308488452045 39.018339978611934
rfingers 7.12502
rthumb 10.954131996667286 10.155148083481542
79
root 0.19385435774979262 18.33171295763798 47.49516294042333 4.09875139503947 -4.751723818045584 0.4182817273601436
lfemur 5.588760177922021 -3.9300268361083233 -25.488601082292156
ltibia 51.51021189642892
lfoot 12.396033156564881 -6.455988944772263
ltoes -12.068788824921088
rfemur -26.194305883201718 2.585612078740972 25.331232390840903
rtibia 38.38663896070704
rfoot 14.241011930291847 -1.1371878082811522
rtoes -8.937151370816405
lowerback 13.348333791613012 0.27281942533562076 -0.32876615670322296
upperback -1.7237842610096257 0.25650125175522476 1.16330169348883
thorax -9.057014341690486 0.20301807126422278 1.581066166691861
lowerneck -20.229886270566645 -2.0580712421405223 -3.204365185910194
upperneck 16.20262625085361 -2.1491978952652384 1.8376317909484112
head 8.182858999806282 -1.0657763747875526 0.8298001103390829
lclavicle -1.7249309010565382e-15 1.786442242281382e-15
lhumerus -37.131104328298875 -18.758298121182435 93.81036551546659
lradius 116.29282846624858
lwrist 31.43815979238648
lhand -23.82476334366445 0.6468747910616699
lfingers 7.12502
lthumb 2.5869376444215355 30.452892635882883
rclavicle -1.7279524579027667e-15 1.7828156874022333e-15
rhumerus -60.51807644183744 4.071244643610051 -97.2618175606255
rradius 115.4664111183664
rwrist -10.612320773172314
rhand -15.78040668541669 38.97335889595967
rfingers 7.12502
rthumb 10.923360087446222 10.274180476392775
80
root 0.1748109427537354 18.14157842673649 48.2608660385883 3.839877397349201 -5.339292021596274 -0.8169200251216511
lfemur 4.076310744442834 -3.1241201462315646 -23.529111250006473
ltibia 57.84040919975327
lfoot 11.005515804748379 -6.371622910164574
ltoes -11.110682088637892
rfemur -26.35116375854912 2.54695264757059 26.821484730569694
rtibia 40.34697435483015
rfoot 14.782181619089783 -2.371494535380135
rtoes -6.429518445293491
lowerback 13.628189881964746 0.4462020781229482 0.9369038779703904
upperback -1.6561601137588116 0.7753603839583418 1.329661518798353
thorax -9.039272424582165 0.4254440920615924 0.799254303078484
lowerneck -19.858819583591146 -1.9950786865852448 -3.2607652952005277
upperneck 16.069894277276486 -2.0629049175102625 1.7681432162571795
head 8.125970890419849 -1.0272857531105073 0.8326991118324918
lclavicle -1.7212866576522855e-15 1.78909678553101e-15
lhumerus -37.43188726539496 -18.373313665524808 93.7401971420057
lradius 113.32329868654047
lwrist 31.066861144868806
lhand -23.988692082797503 1.1637129440361371
lfingers 7.12502
lthumb 2.3442531338786567 31.130985460684872
rclavicle -1.729286851153365e-15 1.7822888057940298e-15
rhumerus -60.02492607735738 3.599219063347512 -97.29570581147794
rradius 115.72485702903205
rwrist -10.50784815082526
rhand -15.959550748661854 38.832369898112866
rfingers 7.12502
rthumb 10.645889058405878 10.300843343973222
